<?xml version="1.0" standalone="no"?>
<!DOCTYPE svg PUBLIC "-//W3C//DTD SVG 20010904//EN"
 "http://www.w3.org/TR/2001/REC-SVG-20010904/DTD/svg10.dtd">
<svg version="1.0" xmlns="http://www.w3.org/2000/svg"
 width="500.000000pt" height="500.000000pt" viewBox="0 0 500.000000 500.000000"
 preserveAspectRatio="xMidYMid meet">
<metadata>
Created by potrace 1.14, written by Peter Selinger 2001-2017
</metadata>
<g transform="translate(0.000000,500.000000) scale(0.100000,-0.100000)"
fill="#000000" stroke="none">
<path d="M2184 4356 c-3 -9 -32 -12 -91 -12 -65 1 -88 -3 -97 -14 -12 -16 -66
-23 -66 -8 0 5 -9 4 -19 -2 -12 -6 -22 -6 -25 -1 -8 12 -46 2 -43 -12 1 -7
-17 -12 -48 -12 -28 -1 -57 -5 -64 -10 -10 -6 -12 -4 -7 6 4 8 1 6 -8 -5 -11
-13 -24 -17 -45 -14 -21 3 -31 0 -31 -9 0 -14 -8 -16 -52 -15 -18 0 -29 -6
-33 -19 -5 -15 -10 -17 -25 -9 -15 8 -24 6 -37 -7 -20 -20 -44 -23 -55 -8 -5
6 -8 5 -8 -3 0 -7 -5 -10 -10 -7 -6 3 -12 0 -15 -7 -3 -8 -14 -14 -25 -15 -11
-1 -27 -9 -35 -17 -11 -11 -26 -13 -47 -9 -18 3 -29 2 -26 -3 3 -5 0 -14 -7
-21 -9 -8 -15 -9 -17 -2 -2 6 -14 1 -27 -10 -26 -23 -36 -27 -26 -11 10 16 -2
12 -21 -7 -9 -9 -26 -19 -38 -20 -11 -2 -26 -10 -32 -18 -6 -8 -14 -12 -18 -8
-4 4 -10 2 -14 -5 -5 -6 -18 -13 -30 -15 -12 -2 -30 -13 -40 -25 -11 -12 -22
-19 -26 -15 -3 3 -6 1 -6 -6 0 -7 -6 -11 -14 -8 -8 3 -22 -5 -32 -18 -10 -13
-21 -22 -26 -19 -4 3 -8 0 -8 -6 0 -7 -8 -9 -21 -5 -12 4 -19 3 -17 -1 9 -15
-36 -51 -60 -49 -12 1 -20 0 -18 -3 6 -5 -83 -92 -95 -92 -5 0 -9 -7 -9 -16 0
-8 -4 -13 -9 -10 -5 3 -11 -1 -15 -9 -3 -8 -17 -15 -31 -15 -15 0 -24 -4 -20
-10 3 -5 2 -10 -4 -10 -6 0 -8 -7 -5 -15 4 -9 0 -15 -10 -16 -9 -1 -20 -3 -26
-4 -5 -1 -13 -3 -17 -4 -5 -1 -2 -5 5 -10 15 -9 13 -12 -62 -75 -25 -21 -43
-43 -40 -47 3 -5 0 -8 -7 -7 -7 2 -15 -6 -17 -17 -2 -11 -22 -37 -44 -57 -22
-20 -37 -42 -33 -47 3 -6 2 -11 -4 -11 -5 0 -16 -14 -25 -30 -9 -20 -10 -28
-3 -24 7 3 4 -1 -5 -9 -10 -8 -18 -22 -18 -31 0 -9 -8 -16 -17 -16 -9 0 -13
-3 -10 -6 4 -4 -3 -15 -15 -26 -12 -10 -18 -21 -15 -24 4 -4 -3 -18 -14 -33
-12 -15 -16 -27 -10 -29 8 -3 8 -9 0 -23 -5 -11 -14 -17 -19 -14 -5 3 -8 -7
-8 -22 1 -45 -1 -53 -15 -53 -7 0 -12 -13 -12 -32 0 -22 -4 -32 -13 -30 -8 1
-11 -2 -7 -8 4 -6 1 -17 -5 -25 -8 -9 -8 -15 -2 -15 11 0 10 -25 -1 -36 -4 -4
-2 -13 4 -20 8 -9 5 -16 -12 -24 -17 -10 -19 -14 -8 -21 8 -5 10 -9 4 -9 -11
0 -13 -159 -2 -176 3 -6 3 -14 -1 -18 -10 -11 -10 -89 1 -103 6 -8 6 -13 0
-13 -12 0 -11 -49 0 -67 5 -8 4 -13 -2 -13 -19 0 -12 -18 9 -25 16 -5 18 -10
10 -25 -6 -12 -6 -21 -1 -25 11 -6 10 -45 -1 -45 -4 0 -5 -6 -2 -14 3 -8 11
-13 18 -10 8 3 13 -8 14 -32 3 -45 10 -57 25 -48 7 4 9 4 5 -1 -4 -4 -3 -17 3
-28 8 -13 8 -17 1 -13 -6 4 -10 -2 -9 -13 0 -11 4 -18 8 -15 4 2 12 -3 19 -11
7 -8 8 -15 3 -15 -5 0 -9 -9 -9 -20 0 -19 9 -25 29 -21 5 1 6 -3 3 -8 -4 -5 0
-12 6 -14 10 -4 10 -6 1 -6 -7 -1 -10 -8 -7 -16 4 -8 10 -12 15 -9 5 3 9 -5 9
-16 0 -12 12 -34 27 -49 16 -14 29 -33 31 -41 2 -8 8 -18 13 -21 6 -3 11 -16
12 -27 1 -12 7 -22 15 -22 7 0 11 -4 7 -9 -3 -5 4 -12 15 -16 11 -4 18 -10 15
-15 -8 -12 6 -41 16 -34 5 3 9 -2 9 -11 0 -9 3 -14 8 -12 9 4 52 -40 44 -47
-3 -3 0 -6 7 -6 19 0 45 -30 46 -53 1 -12 -5 -29 -15 -39 -9 -10 -15 -31 -14
-48 1 -20 -3 -30 -12 -30 -8 0 -14 -10 -14 -24 0 -13 -7 -27 -16 -30 -14 -5
-14 -9 -3 -24 7 -9 10 -14 5 -10 -15 12 -38 -22 -39 -57 -1 -24 -4 -31 -13
-25 -8 7 -10 0 -9 -24 3 -33 -6 -59 -19 -57 -16 2 -18 0 -6 -14 10 -12 7 -17
-14 -26 -16 -8 -22 -15 -16 -19 8 -5 6 -13 -7 -25 -9 -10 -18 -32 -18 -49 0
-18 -5 -30 -11 -29 -7 1 -14 -7 -17 -17 -3 -11 0 -20 6 -20 8 0 8 -3 0 -11 -6
-6 -9 -18 -6 -25 3 -10 0 -12 -10 -8 -11 4 -15 0 -13 -13 2 -10 -3 -23 -11
-28 -8 -6 -15 -19 -17 -29 -1 -9 -9 -22 -17 -27 -8 -5 -10 -9 -5 -9 5 0 3 -7
-4 -15 -10 -12 -10 -15 0 -15 9 0 10 -3 1 -13 -6 -8 -7 -17 -3 -21 4 -4 0 -6
-8 -4 -10 2 -15 -4 -14 -20 1 -12 -1 -21 -3 -18 -3 3 -11 -1 -18 -7 -9 -8 -10
-16 -3 -24 7 -9 7 -13 -2 -13 -10 0 -10 -3 0 -16 8 -8 9 -14 4 -13 -23 4 -33
-3 -29 -21 2 -11 -2 -23 -9 -27 -7 -5 -15 -18 -18 -31 -4 -12 -2 -20 3 -16 5
3 9 -1 10 -8 0 -7 5 -3 11 10 8 15 17 20 28 17 10 -3 20 1 23 9 3 8 16 13 31
12 14 -2 24 2 23 8 -1 6 14 12 33 14 19 2 40 10 47 19 6 8 16 12 22 9 5 -3 17
1 25 10 9 8 16 12 16 8 0 -3 7 -1 15 6 8 6 19 9 24 5 6 -3 9 0 6 8 -4 9 3 13
25 11 17 -1 37 5 45 13 9 8 20 13 27 11 6 -2 20 4 30 14 9 9 24 15 33 12 8 -4
15 -1 15 5 0 5 10 15 21 22 17 9 20 8 14 -3 -5 -7 3 -3 17 10 19 17 27 20 31
10 4 -10 6 -10 6 0 1 10 6 10 24 1 12 -6 19 -8 15 -4 -12 13 12 35 39 35 14 0
21 4 18 10 -5 9 18 15 29 8 2 -2 13 5 24 15 11 10 26 17 34 16 28 -3 49 1 43
11 -4 6 1 7 11 3 13 -5 15 -3 9 7 -6 9 -4 11 5 5 8 -5 18 -1 26 10 8 10 17 16
20 12 4 -3 19 0 35 8 15 8 40 15 54 15 15 0 24 4 20 10 -3 6 1 11 9 11 33 3
37 4 46 19 5 8 10 11 10 7 0 -4 9 -3 20 3 13 7 20 7 20 1 0 -6 7 -8 15 -5 8 4
13 10 10 14 -3 4 2 10 9 13 8 3 17 1 20 -6 3 -9 5 -8 5 1 1 7 6 10 11 7 6 -3
10 1 10 10 0 18 39 18 52 0 4 -5 22 -10 40 -10 18 -1 32 -6 31 -11 -1 -5 10
-11 24 -12 30 -2 45 -11 38 -21 -2 -5 13 -8 36 -7 26 1 38 -2 35 -9 -3 -10 21
-14 101 -18 7 0 10 -4 7 -9 -6 -9 17 -12 56 -9 14 1 22 -1 18 -5 -15 -14 25
-32 54 -23 18 5 28 4 28 -3 0 -5 7 -8 15 -4 8 3 15 0 15 -7 0 -8 22 -12 75
-11 56 0 76 -3 80 -14 3 -8 11 -12 19 -9 7 3 19 0 25 -6 8 -8 11 -7 11 3 0 13
2 13 10 0 5 -8 10 -10 10 -4 0 11 52 10 71 -1 5 -4 9 -1 9 6 0 7 8 5 20 -6 18
-17 46 -18 339 -19 176 -1 317 2 314 6 -2 5 1 8 7 8 6 0 9 3 6 8 -7 11 98 9
106 -3 5 -6 8 -5 8 3 0 7 5 10 11 7 14 -10 61 4 54 15 -4 6 17 8 52 6 32 -2
64 2 72 8 12 9 13 8 6 -4 -7 -12 -6 -13 7 -3 8 7 19 9 23 5 5 -4 5 -1 1 6 -4
7 -2 12 6 13 7 1 20 2 28 3 8 1 21 -3 28 -8 7 -5 12 -4 12 3 0 7 4 10 9 7 5
-3 11 0 14 8 4 9 20 13 47 12 26 -1 48 4 57 12 8 8 25 12 39 9 19 -3 28 2 39
22 8 14 14 21 15 15 0 -18 53 -11 74 10 14 14 20 15 26 6 6 -9 9 -7 14 7 4 13
14 18 33 17 35 -1 55 5 47 17 -3 5 5 9 17 9 12 0 31 7 41 17 14 12 18 13 18 3
0 -10 3 -9 13 2 6 9 21 18 32 20 11 2 26 11 33 21 8 11 21 16 32 12 11 -3 20
0 24 11 3 9 13 14 20 11 8 -3 17 1 20 8 3 8 12 12 21 9 8 -3 15 -1 15 6 0 6 5
8 10 5 6 -3 10 -2 10 4 0 5 9 13 20 16 11 4 18 11 14 16 -3 6 0 9 7 8 23 -4
49 12 49 30 0 12 2 13 9 3 12 -20 21 -19 32 1 6 9 15 14 21 11 7 -4 8 -2 4 4
-4 7 7 18 28 29 19 9 32 21 29 26 -3 6 -1 7 6 3 7 -5 20 2 33 16 11 12 24 22
29 21 5 -2 9 2 9 8 0 6 7 17 15 25 8 9 15 13 15 10 0 -3 8 2 18 11 11 10 17
23 14 28 -3 6 1 5 8 -2 10 -10 19 -6 41 20 16 18 32 32 37 32 13 0 42 32 35
39 -6 6 12 10 30 7 5 -1 6 3 2 9 -3 5 1 13 10 16 9 4 14 13 11 20 -3 8 -1 14
5 14 6 0 7 4 4 10 -3 5 1 10 10 10 9 0 13 5 10 10 -3 6 -1 10 4 10 16 0 51 32
45 42 -3 5 0 7 8 6 8 -2 13 6 12 20 0 12 4 22 9 22 15 0 54 45 49 58 -2 6 7
16 19 22 16 9 18 14 9 20 -10 6 -6 15 15 34 15 14 32 26 36 26 5 0 6 7 3 15
-3 8 2 22 11 31 9 9 14 23 11 31 -3 8 -2 12 2 10 11 -8 27 16 30 47 3 20 0 26
-9 21 -8 -5 -10 -4 -5 3 4 7 14 12 22 12 9 0 14 11 14 34 0 20 6 36 15 39 9 4
13 16 10 36 -2 17 1 34 7 37 7 5 8 2 3 -6 -6 -9 -4 -11 4 -6 7 5 10 14 7 22
-3 8 -2 14 2 14 9 0 8 52 -1 67 -7 11 16 37 25 27 3 -3 5 20 4 51 -1 31 2 59
6 61 5 3 5 10 2 16 -9 13 -11 219 -2 224 3 2 2 20 -3 39 -6 19 -8 39 -5 44 3
5 -3 11 -14 14 -16 4 -18 9 -10 36 5 19 5 33 -1 37 -7 4 -6 10 0 18 7 9 5 16
-8 26 -13 9 -18 22 -15 42 2 22 -2 31 -17 36 -24 9 -26 21 -7 33 9 6 10 9 1 9
-7 0 -10 7 -7 15 6 14 -6 20 -29 16 -5 -1 -5 4 -1 11 16 25 11 56 -9 62 -10 2
-16 9 -13 14 9 16 -4 42 -22 42 -8 0 -13 3 -9 6 3 4 -4 15 -16 26 -12 11 -17
17 -11 14 6 -3 11 1 11 9 0 8 -3 14 -6 13 -22 -2 -28 5 -23 27 3 17 0 25 -8
23 -7 -2 -14 5 -15 14 -3 18 -35 68 -35 55 0 -4 -6 -2 -14 5 -8 7 -11 17 -8
22 3 5 -2 7 -10 3 -12 -4 -15 0 -13 19 1 14 -3 24 -10 24 -7 0 -16 7 -19 16
-3 8 -11 12 -17 8 -7 -4 -9 -3 -6 3 8 12 -38 54 -49 45 -4 -4 -4 1 0 12 5 14
2 17 -9 12 -9 -3 -16 1 -16 9 -1 8 -2 21 -3 28 -1 6 -14 12 -29 12 -22 -1 -27
3 -25 20 1 11 -1 21 -6 22 -5 1 -13 7 -17 15 -6 9 -9 9 -9 1 0 -7 -13 0 -29
15 -15 15 -26 31 -23 36 3 5 0 6 -5 3 -6 -4 -18 4 -27 18 -9 14 -23 25 -31 25
-8 0 -15 6 -15 13 0 15 -38 40 -50 32 -5 -3 -16 5 -24 17 -9 12 -16 18 -16 13
0 -5 -6 -1 -13 10 -8 10 -19 15 -24 12 -13 -8 -36 17 -26 27 4 4 -1 4 -11 0
-14 -5 -17 -4 -12 4 7 12 -1 15 -37 15 -10 0 -15 2 -13 5 10 9 -44 51 -59 46
-9 -4 -18 1 -21 10 -4 10 -15 16 -28 14 -13 -2 -20 2 -18 10 2 10 -17 15 -45
11 -3 0 -10 6 -15 15 -5 9 -17 16 -28 16 -10 0 -26 7 -34 16 -9 8 -16 13 -16
9 0 -3 -10 0 -22 7 -27 14 -30 15 -63 17 -15 0 -25 7 -25 16 0 9 -6 12 -15 8
-9 -3 -23 1 -33 9 -9 8 -29 14 -44 13 -17 -1 -28 3 -28 10 0 18 -25 26 -39 12
-8 -8 -11 -8 -11 2 0 7 -5 9 -10 6 -6 -3 -18 1 -27 10 -13 13 -18 14 -24 3 -6
-9 -9 -9 -9 -1 0 6 -9 10 -20 8 -12 -2 -20 2 -20 9 0 8 -9 16 -20 19 -11 3
-20 1 -20 -4 0 -10 -30 0 -46 16 -7 6 -35 10 -63 9 -28 -1 -51 2 -51 6 0 10
-41 25 -55 21 -27 -8 -65 -6 -65 3 0 6 -5 4 -10 -4 -7 -11 -10 -11 -10 -2 0 7
-4 11 -9 7 -6 -3 -14 3 -20 12 -7 12 -10 13 -11 4 0 -9 -4 -10 -12 -4 -7 6
-44 9 -81 7 -48 -2 -70 1 -73 10 -7 19 -593 20 -600 2z m-711 -1373 c-4 -11
-3 -14 5 -9 7 4 12 3 12 -1 0 -5 25 -7 56 -6 40 1 57 -3 61 -13 3 -8 9 -11 14
-8 5 3 9 -1 9 -8 0 -10 2 -10 9 1 7 11 12 10 22 -8 8 -11 19 -21 26 -21 6 0
15 -9 18 -20 3 -11 10 -20 15 -20 14 0 50 -42 44 -52 -3 -4 0 -8 7 -8 7 0 9
-3 6 -7 -4 -3 1 -12 11 -19 12 -10 13 -13 3 -14 -11 0 -11 -3 -1 -15 7 -8 16
-12 21 -10 4 3 7 -16 7 -42 -1 -27 1 -54 6 -61 4 -7 2 -12 -4 -12 -7 0 -9 -8
-5 -20 4 -12 0 -26 -10 -37 -10 -10 -15 -27 -13 -44 3 -15 2 -28 -1 -27 -19 2
-33 -3 -28 -9 4 -3 -3 -13 -14 -21 -17 -12 -18 -16 -8 -23 11 -7 9 -10 -8 -15
-13 -4 -21 -10 -18 -14 3 -4 -2 -11 -11 -14 -8 -3 -13 -10 -10 -14 3 -5 0 -9
-7 -10 -32 -3 -51 -10 -55 -20 -2 -7 -15 -12 -28 -12 -13 0 -24 -6 -24 -12 0
-10 -21 -13 -78 -11 -42 0 -81 2 -87 3 -5 1 -25 1 -43 0 -22 -1 -32 3 -30 12
2 8 -5 12 -19 10 -13 -2 -23 2 -23 7 0 6 -7 11 -15 11 -8 0 -15 5 -15 11 0 5
-5 7 -10 4 -14 -9 -97 77 -94 97 1 10 -3 16 -9 15 -7 -1 -12 8 -11 21 0 12 -3
22 -7 22 -4 0 -5 9 -2 20 4 14 1 19 -8 15 -11 -4 -14 10 -16 62 -1 56 2 72 20
91 11 12 16 22 11 22 -5 0 -10 9 -10 20 0 18 8 24 29 21 4 -1 5 12 2 29 -4 23
-2 28 10 24 10 -4 15 0 15 12 0 9 3 15 6 12 3 -4 23 11 45 33 37 37 49 43 76
40 7 -1 10 4 7 12 -4 11 8 14 55 13 46 -1 64 3 76 17 19 22 26 22 18 0z m1024
-7 c-6 -16 44 -16 55 -1 5 6 8 6 8 -1 0 -7 12 -10 30 -8 22 3 32 -2 41 -18 8
-15 13 -17 19 -8 6 9 16 5 39 -19 17 -17 36 -31 43 -31 9 0 9 -3 -2 -10 -12
-8 -10 -10 9 -10 13 0 21 -3 18 -6 -4 -4 2 -14 12 -23 10 -9 17 -24 15 -33 -1
-10 4 -18 12 -18 8 0 14 -10 14 -26 0 -14 4 -23 10 -19 9 6 14 -8 11 -29 -1
-4 4 -15 11 -24 8 -10 9 -13 1 -9 -8 5 -11 -7 -11 -40 1 -69 -1 -75 -14 -67
-8 5 -9 2 -5 -9 3 -10 3 -17 -2 -17 -4 0 -6 -11 -3 -25 3 -19 0 -25 -14 -25
-9 0 -14 -3 -11 -7 4 -3 1 -13 -6 -21 -10 -13 -9 -14 3 -7 8 4 4 -3 -10 -17
-14 -13 -28 -23 -32 -21 -5 2 -8 -3 -8 -11 0 -16 -38 -42 -47 -32 -3 2 -15 -4
-26 -15 -12 -11 -26 -18 -31 -16 -6 2 -18 -4 -28 -12 -22 -19 -40 -21 -50 -6
-5 6 -8 6 -8 0 0 -18 -158 -11 -180 7 -10 9 -21 14 -24 11 -3 -4 -15 2 -26 12
-10 9 -26 15 -35 11 -9 -3 -13 -2 -10 4 3 6 2 10 -4 10 -5 0 -12 9 -16 19 -4
12 -12 18 -21 14 -8 -3 -14 1 -14 9 0 7 -8 20 -19 27 -11 8 -16 21 -14 32 4
14 1 18 -10 13 -12 -4 -14 2 -11 30 2 25 -1 36 -11 36 -9 0 -14 16 -17 50 -1
28 -1 50 2 50 10 0 5 60 -5 60 -5 1 -1 6 11 13 13 7 20 21 19 35 -1 15 3 21
12 18 12 -5 17 6 14 27 -1 10 37 47 50 47 5 0 7 5 4 10 -3 6 5 14 19 19 13 6
27 19 31 30 3 12 11 21 16 21 6 0 7 -4 4 -10 -3 -6 1 -7 9 -4 9 3 16 10 16 16
0 5 5 6 10 3 6 -3 10 -2 10 4 0 5 19 9 43 9 68 0 78 2 73 10 -2 4 4 9 16 9 12
1 18 -3 15 -11z m1016 -2 c-1 -6 25 -9 63 -8 37 1 62 -2 58 -7 -5 -8 12 -13
43 -12 7 0 15 -8 18 -18 4 -11 10 -19 14 -19 5 0 27 -18 49 -39 22 -22 42 -39
44 -38 2 1 0 -2 -4 -7 -4 -5 0 -15 9 -21 9 -6 16 -25 17 -42 1 -16 10 -38 20
-48 12 -13 15 -20 7 -23 -9 -3 -9 -7 0 -18 9 -11 9 -14 -1 -14 -10 0 -10 -3
-1 -14 9 -11 9 -16 0 -21 -8 -6 -7 -10 2 -16 11 -7 11 -9 1 -9 -7 0 -10 -5 -7
-10 8 -13 -20 -41 -31 -32 -5 4 -3 0 2 -8 16 -22 13 -51 -5 -48 -11 2 -16 -5
-15 -29 0 -17 -3 -31 -6 -30 -3 1 -15 -8 -28 -21 -12 -12 -27 -20 -31 -17 -5
2 -11 -5 -14 -16 -3 -12 -10 -18 -17 -14 -6 4 -20 -1 -31 -11 -10 -9 -22 -14
-26 -11 -3 4 -11 0 -17 -8 -12 -16 -123 -28 -132 -14 -2 4 -17 4 -32 0 -34 -9
-88 1 -85 16 2 7 -7 10 -22 7 -18 -3 -25 0 -25 11 0 12 -6 15 -20 10 -12 -4
-20 -2 -20 5 0 6 -4 8 -10 5 -5 -3 -10 0 -10 8 0 8 -9 17 -20 20 -11 3 -20 12
-20 20 0 9 -9 18 -19 22 -13 4 -17 12 -13 27 3 14 1 19 -6 14 -7 -4 -15 6 -20
26 -5 18 -13 32 -18 31 -5 -1 -9 41 -9 93 0 69 3 94 13 94 6 0 12 11 12 25 0
14 4 25 10 25 5 0 14 10 21 21 9 17 8 20 -3 13 -7 -4 -4 2 6 14 11 12 25 22
33 22 8 0 11 5 8 10 -3 6 -1 10 5 10 6 0 8 5 5 10 -4 6 -1 9 7 8 7 -2 12 3 10
10 -1 8 2 11 7 8 5 -4 16 2 23 12 8 12 22 18 35 16 14 -3 22 1 20 8 -1 9 15
13 53 15 81 2 82 2 74 14 -4 7 1 9 12 7 11 -2 18 -9 17 -14z"/>
</g>
</svg>
